<?xml version="1.0" encoding="UTF-8" standalone="no"?>
<!-- Created with Inkscape (http://www.inkscape.org/) -->

<svg
   xmlns:dc="http://purl.org/dc/elements/1.1/"
   xmlns:cc="http://creativecommons.org/ns#"
   xmlns:rdf="http://www.w3.org/1999/02/22-rdf-syntax-ns#"
   xmlns:svg="http://www.w3.org/2000/svg"
   xmlns="http://www.w3.org/2000/svg"
   xmlns:sodipodi="http://sodipodi.sourceforge.net/DTD/sodipodi-0.dtd"
   xmlns:inkscape="http://www.inkscape.org/namespaces/inkscape"
   width="120mm"
   height="120mm"
   viewBox="0 0 425.19685039 425.19685039"
   id="svg2816"
   version="1.1"
   inkscape:version="0.91 r13725"
   sodipodi:docname="drawing-1.svg">
  <defs
     id="defs2818" />
  <sodipodi:namedview
     pagecolor="#ffffff"
     bordercolor="#666666"
     borderopacity="1.0"
     inkscape:pageopacity="0.0"
     inkscape:pageshadow="2"
     inkscape:zoom="0.97070313"
     inkscape:cx="212.59843"
     inkscape:cy="212.59843"
     inkscape:document-units="mm"
     inkscape:current-layer="g3510"
     id="namedview2820"
     showgrid="false"
     units="mm"
     showguides="true"
     inkscape:guide-bbox="true"
     inkscape:snap-global="true"
     inkscape:snap-bbox="true"
     inkscape:snap-bbox-midpoints="true"
     inkscape:window-width="850"
     inkscape:window-height="704"
     inkscape:window-maximized="0"
     inkscape:bbox-paths="true"
     inkscape:bbox-nodes="true"
     inkscape:snap-bbox-edge-midpoints="true"
     inkscape:snap-grids="true"
     inkscape:window-x="0"
     inkscape:window-y="27">
    <sodipodi:guide
       orientation="1,0"
       position="212.59843,0"
       id="guide3337" />
    <sodipodi:guide
       orientation="0,1"
       position="0,212.59843"
       id="guide3339" />
    <inkscape:grid
       type="xygrid"
       id="grid3351"
       units="mm"
       spacingx="1mm"
       spacingy="1mm"
       empspacing="5" />
  </sodipodi:namedview>
  <metadata
     id="metadata2822">
    <rdf:RDF>
      <cc:Work
         rdf:about="">
        <dc:format>image/svg+xml</dc:format>
        <dc:type
           rdf:resource="http://purl.org/dc/dcmitype/StillImage" />
        <dc:title></dc:title>
      </cc:Work>
    </rdf:RDF>
  </metadata>
  <g
     inkscape:groupmode="layer"
     id="Template"
     inkscape:label="Layer 1"
     style="fill:none;stroke:#000000;stroke-width:0.35433071px">
    <g
       id="g3494"
       transform="matrix(3.6987186,0,0,3.6987186,-1218.0301,-1085.8233)">
      <g
         id="g3510"
         transform="matrix(0.74334196,0,0,0.74334196,62.015915,72.758807)"
         inkscape:export-xdpi="300"
         inkscape:export-ydpi="300">
        <g
           id="g3472">
          <path
             sodipodi:nodetypes="sscsssssssssssscssssscssssssssscssssssscssssscscccscccccscs"
             inkscape:connector-curvature="0"
             id="path3446"
             d="m 381.78988,411.31917 c -1.93033,-1.29268 -3,-2.43687 -3,-3.20901 0,-1.09046 0.34214,-1.18415 3.74828,-1.02641 2.06156,0.0955 4.84436,-0.12155 6.18401,-0.48228 2.85788,-0.76955 6.7133,-4.04575 7.77373,-6.60584 0.7009,-1.69212 0.55938,-2.10626 -2.32965,-6.81731 -3.59965,-5.8698 -4.15815,-7.8961 -2.86542,-10.39595 0.97494,-1.88532 3.73972,-4.07312 4.18994,-3.31553 1.06552,1.79292 4.18746,13.14902 4.44292,16.16121 0.75206,8.86732 -4.75249,16.84793 -12.03249,17.44496 -2.7533,0.2258 -3.45654,0.024 -6.11132,-1.75384 z m 29.1,0.68388 c -3.63819,-1.99941 -4.89588,-3.24489 -4.45001,-4.40681 0.35517,-0.92557 0.89857,-1.01213 4.16058,-0.6628 4.65048,0.49802 9.30006,-0.72817 12.28943,-3.24099 1.155,-0.97088 1.94864,-1.92042 1.76365,-2.11011 -0.18499,-0.18967 -2.10673,-0.59559 -4.27052,-0.90201 -7.54823,-1.06897 -9.86103,-3.53365 -9.34527,-9.95899 0.42754,-5.32625 3.41732,-10.40248 6.93084,-11.76762 1.69471,-0.65846 4.65901,0.49092 6.54199,2.53659 1.69709,1.84372 3.72618,6.43755 4.27641,9.68167 l 0.43048,2.53818 2.98621,0.19466 c 3.56446,0.23235 8.64828,-0.32957 9.88244,-1.09233 0.74378,-0.45968 0.52639,-1.21311 -1.35517,-4.69669 -1.23259,-2.28204 -2.24107,-4.71537 -2.24107,-5.4074 0,-1.22412 3.70823,-5.49823 4.77029,-5.49823 0.53479,0 1.1269,2.31657 2.49506,9.76173 0.65539,3.56645 0.61789,4.46944 -0.30753,7.40519 -0.99154,3.14552 -1.24681,3.43177 -4.31185,4.83499 -2.09598,0.95957 -4.83779,1.61101 -7.68767,1.82654 l -4.42974,0.33503 -1.34818,2.87842 c -3.43765,7.33953 -11.09394,10.87602 -16.78037,7.75098 z m 14.4,-18.61679 c 0,-0.34315 -0.53247,-1.66762 -1.18326,-2.94328 -2.3042,-4.5166 -6.22416,-6.10572 -8.90361,-3.60944 -2.57068,2.39495 -1.26912,5.75313 2.61187,6.73896 2.25378,0.57249 7.475,0.4424 7.475,-0.18624 z m -56.23725,-10.25332 c -0.90507,-12.3731 -1.13375,-18.42955 -0.72474,-19.19379 0.63967,-1.19524 3.56213,-2.92898 4.9372,-2.92898 0.49916,0 1.27284,1.44676 1.92429,3.59834 1.01535,3.35349 1.02182,3.67311 0.095,4.69724 -0.87029,0.96166 -0.99449,2.97638 -0.99449,16.13168 l 0,15.03278 -1.35,0.36178 c -0.7425,0.19898 -1.62336,0.36548 -1.95747,0.36998 -0.36787,0.005 -1.12901,-7.12176 -1.92978,-18.06903 z m 67.14696,-12.3744 -2.5903,-2.24837 2.7485,-2.68298 2.74849,-2.68297 2.45798,2.45798 2.45799,2.45799 -2.23601,2.47499 c -1.2298,1.36124 -2.40708,2.47425 -2.61618,2.47337 -0.2091,-6e-4 -1.54582,-1.0134 -2.97047,-2.25001 z"
             style="fill:#434965;fill-opacity:1" />
          <path
             style="fill:#46a975;fill-opacity:1"
             d="m 471.33742,420.99902 c -8.55325,-2.16873 -14.77989,-8.44167 -18.50147,-18.63906 -1.43312,-3.92684 -1.73535,-5.66845 -1.68627,-9.71707 0.0329,-2.713 0.2578,-5.60773 0.49978,-6.43272 0.3894,-1.32761 0.49207,-1.1897 0.89333,1.19999 1.92997,11.49392 6.70671,17.84913 15.13979,20.14275 3.8953,1.05944 5.59708,1.02532 18.00133,-0.36097 l 6.69404,-0.74811 -0.78635,-2.22876 c -0.43249,-1.22582 -1.35054,-5.06619 -2.04011,-8.53416 -1.06568,-5.35947 -2.57624,-10.32335 -3.41018,-11.20624 -0.12234,-0.12953 -0.56714,0.0506 -0.98844,0.40021 -3.39316,2.81608 -15.53754,4.94892 -21.49991,3.77589 -3.80432,-0.74845 -7.87098,-2.31855 -9.79172,-3.78047 -1.09103,-0.83041 -1.06455,-0.99332 0.79467,-4.88898 1.05783,-2.21647 2.32925,-6.02052 2.8254,-8.45345 0.81066,-3.97521 0.8064,-4.79696 -0.042,-8.1086 -1.72629,-6.73837 -5.55833,-10.71759 -14.74944,-15.31591 -2.475,-1.23824 -5.62864,-3.02577 -7.0081,-3.97227 -1.37946,-0.94651 -2.62552,-1.72092 -2.76903,-1.72092 -0.1435,0 -0.87205,1.8225 -1.619,4.05 -0.74695,2.2275 -1.97458,5.27653 -2.72806,6.77562 -2.07367,4.12568 -3.333,9.07121 -3.38286,13.28493 l -0.0448,3.78945 -1.87404,-3.9 c -3.11504,-8.37241 -2.40007,-16.91938 0.0788,-24.68268 1.02316,-3.18047 2.17382,-7.50047 2.55703,-9.6 0.38321,-2.09952 0.80175,-4.16124 0.93008,-4.58159 0.16608,-0.54394 1.40477,-0.17912 4.2967,1.26545 2.23484,1.11634 6.35835,2.78062 9.16335,3.6984 9.84492,3.22119 16.29738,7.40519 19.83167,12.85953 1.08374,1.67249 2.02595,3.04089 2.09381,3.04089 0.0679,0 1.30654,-0.66128 2.75262,-1.46951 4.32682,-2.41831 9.16868,-3.34189 20.6219,-3.9336 5.94,-0.30689 11.37547,-0.72485 12.07883,-0.9288 1.21496,-0.35231 1.2539,-0.2409 0.77976,2.23054 -0.27448,1.43075 -0.67506,6.65137 -0.89016,11.60137 -0.57686,13.27518 -2.26897,19.26984 -6.94144,24.59149 l -1.87525,2.13579 3.01315,3.18596 c 3.72612,3.93983 5.50723,7.40573 8.90812,17.33457 1.46234,4.2693 3.19165,8.80682 3.8429,10.08337 0.65125,1.27656 1.18409,2.44143 1.18409,2.58861 0,0.14718 -1.39013,0.45879 -3.08917,0.69247 -1.69905,0.23368 -6.49155,1.34871 -10.65,2.47784 -8.12302,2.20563 -16.5679,3.02448 -20.61328,1.99875 z m -2.04368,-43.93513 c 1.04357,-1.8328 1.14863,-1.87746 1.92352,-0.81774 1.04191,1.4249 4.89277,1.7454 6.76276,0.56284 1.09958,-0.69535 1.57357,-0.7269 2.2676,-0.1509 0.7087,0.58817 1.16249,0.4604 2.35984,-0.66445 0.81533,-0.76596 1.48241,-1.86965 1.48241,-2.45265 0,-0.583 0.27,-1.22687 0.6,-1.43082 0.33,-0.20396 0.6,0.21003 0.6,0.91995 0,0.70992 0.54,1.97727 1.2,2.81632 1.14888,1.46056 1.2,1.47098 1.2,0.24464 0,-0.7045 0.24073,-1.28091 0.53496,-1.28091 0.29422,0 0.69187,-0.62522 0.88366,-1.38936 0.19179,-0.76415 0.89606,-2.02046 1.56504,-2.79181 0.66899,-0.77134 1.21634,-2.13816 1.21634,-3.03737 0,-2.39698 1.6051,-5.83494 3.09697,-6.63336 l 1.29894,-0.69517 -1.27438,-0.97647 c -0.80228,-0.61473 -1.42471,-1.97667 -1.68021,-3.67646 -0.22321,-1.485 -0.63854,-3.15422 -0.92294,-3.70937 -0.80851,-1.57819 -2.83853,-1.94888 -4.15386,-0.75852 -0.99751,0.90274 -2.34034,1.02377 -10.157,0.91548 l -9.00752,-0.12478 0,2.13859 c 0,1.50098 -0.26834,2.1386 -0.9,2.1386 -0.71283,0 -0.9,0.85889 -0.9,4.13002 0,3.42701 -0.17873,4.17753 -1.05,4.40916 -1.23095,0.32724 -3.54159,6.03028 -2.57391,6.35285 0.34316,0.11438 0.6257,0.65797 0.62787,1.20796 0.002,0.55001 0.53847,1.81001 1.19177,2.80001 0.65329,0.99 1.03832,2.2725 0.85561,2.85 -0.59875,1.89249 1.7749,1.17195 2.95253,-0.89628 z"
             id="path3508"
             inkscape:connector-curvature="0"
             sodipodi:nodetypes="csssssscssccssssssssssccccscsssssscssscssssssccsssssscssssscsscssssscssssccsss" />
        </g>
      </g>
    </g>
  </g>
</svg>
